<?xml version="1.0" encoding="utf-8"?>
<!-- Generator: Adobe Illustrator 17.0.0, SVG Export Plug-In . SVG Version: 6.00 Build 0)  -->
<!DOCTYPE svg PUBLIC "-//W3C//DTD SVG 1.1//EN" "http://www.w3.org/Graphics/SVG/1.1/DTD/svg11.dtd">
<svg version="1.1" id="Layer_1" xmlns="http://www.w3.org/2000/svg" xmlns:xlink="http://www.w3.org/1999/xlink" x="0px" y="0px"
	 width="345px" height="345px" viewBox="0 0 345 345" enable-background="new 0 0 345 345" xml:space="preserve">
<rect x="2.5" y="1.169" fill="#FFFFFF" stroke="#231F20" stroke-miterlimit="10" width="340" height="339.831"/>
<g>
	<circle fill="#BE1E2D" cx="127.667" cy="144.298" r="45.536"/>
	<g>
		<g>
			<path d="M180.993,171.819c0.834,1.762,0.948,1.873,2.182,2.132c-0.017,0.397-0.373,0.184-0.546,0.3
				c-0.299,0.202-0.221,0.487-0.177,0.755c0.039,0.24,0.201,0.343,0.432,0.229c0.92-0.455,1.313,0.444,1.977,0.743
				c0.388-0.211,0.138-0.858,0.635-1.037c0.329,0.252-0.072,0.492-0.017,0.739c0.043,0.192,0.038,0.439,0.287,0.463
				c0.242,0.023,0.341-0.183,0.346-0.395c0.014-0.577,0.26-0.707,0.764-0.443c0.079,0.041,0.308-0.032,0.307-0.037
				c-0.153-1.516,0.859-0.578,1.371-0.642c1.229-0.153,1.925-1.223,2.967-1.704c0.326-0.15,0.034-0.491-0.127-0.707
				c-0.173-0.232-0.68-0.109-0.631-0.616c1.237-0.112,1.706,0.812,2.264,1.898c0.283-0.763,0.258-1.488,1.216-1.623
				c-0.635-0.491-1.135-0.559-1.627-0.597c-0.309-0.024-0.577-0.018-0.531-0.434c0.064-0.569-0.427-0.505-0.624-0.391
				c-0.873,0.507-1.864,0.223-2.782,0.478c-0.473,0.132-1.324,0.011-1.259-0.897c0.032-0.451-0.306-0.467-0.5-0.683
				c-0.551-0.615-0.921-1.299-0.081-2.053c0.518,0.372,0.074,1.602,0.461,1.28c0.716-0.596,1.451,0.58,1.931-0.29
				c0.166-0.301,0.242-0.575,0.045-0.967c-0.295,0.342-0.603,0.965-0.88,0.005c-0.114-0.395-0.551-0.681-0.588-1.148
				c-0.04-0.501-0.61-0.627-0.778-0.563c-1.33,0.506-1.141-0.469-1.166-1.359c-0.491,0.363-0.71,1.078-1.377,0.65
				c-0.714-0.458-0.207-0.976-0.119-1.484c0.168-0.978,0.882-1.601,1.498-2.266c4.968-5.363,10.666-9.79,17.336-12.804
				c5.628-2.543,11.57-4.143,17.705-4.969c5.55-0.748,11.129-1.053,16.724-1.137c1.506-0.022,1.802,0.322,0.952,1.5
				c-1.941,2.687-2.711,5.734-3.2,8.93c-0.994,6.5-4.181,11.964-7.974,17.215c-4.096,5.671-9.401,10.078-14.899,14.142
				c-5.456,4.033-11.576,7.139-18.384,8.406c-5.264,0.979-10.591,1.552-15.929,1.975c-0.663,0.052-1.105,0.289-1.52,0.777
				c-0.922,1.084-1.34,2.358-1.466,3.735c-0.355,3.875-0.361,7.746,0.338,11.589c0.203,1.115,0.168,2.232,0.167,3.348
				c-0.009,6.76,0.47,13.502,0.726,20.252c0.15,3.96-0.36,7.901-0.473,11.855c-0.028,0.995,0.294,1.117,1.057,0.757
				c0.646-0.304,1.302-0.587,1.856-1.072c7.446-6.532,14.923-13.035,22.709-19.153c4.805-3.775,10.061-6.846,15.937-8.839
				c5.549-1.883,11.226-3.145,16.993-3.904c7.567-0.996,15.145-0.987,22.721,0.377c6.143,1.106,12.165,2.552,17.999,4.776
				c0.802,0.306,1.426,0.876,2.187,1.229c4.996,2.321,10.1,4.376,15.29,6.218c1.993,0.707,3.993,1.396,6.003,2.055
				c0.479,0.157,0.844,0.387,1.099,0.809c0,0.08,0,0.16,0,0.24c-0.872,0.936-1.828,1.735-2.999,2.313
				c-4.759,2.349-8.676,5.738-11.661,10.098c-2.275,3.324-5.494,5.572-8.606,7.89c-4.92,3.664-9.915,7.278-15.351,10.148
				c-3.558,1.879-7.384,3.202-11.277,4.315c-6.702,1.917-13.518,3.153-20.45,3.808c-1.963,0.186-3.888,0.008-5.825-0.282
				c-3.454-0.516-6.939-0.706-10.42-0.954c-4.447-0.317-8.603-1.91-12.846-3.113c-3.135-0.889-5.945-2.526-8.819-3.977
				c-5.243-2.646-10.259-5.699-15.044-9.116c-0.477-0.341-0.901-0.778-1.124,0.244c-1.979,9.049-5.863,17.502-8.263,26.421
				c-3.19,11.856-5.185,23.886-5.588,36.178c-0.248,7.553-0.276,15.109-0.505,22.662c-0.054,1.792-0.286,3.579-0.419,5.369
				c-0.055,0.749-0.453,1.062-1.173,1.044c-0.839-0.021-1.679-0.04-2.518-0.051c-1.021-0.013-1.461-0.553-1.343-1.533
				c0.232-1.933,0.386-3.884,0.766-5.789c0.588-2.951,0.869-5.931,1.076-8.918c0.385-5.544,0.678-11.093,1.041-16.639
				c0.486-7.419,0.795-14.859,1.95-22.212c0.887-5.645,1.744-11.308,3.133-16.856c0.99-3.952-0.214-7.149-2.85-9.967
				c-1.048-1.121-1.212-1.053-2.149,0.152c-1.69,2.176-3.972,3.46-6.553,4.208c-4.14,1.2-8.318,1.859-12.66,1.053
				c-2.389-0.443-4.842-0.556-7.269-0.78c-4.488-0.414-8.599-1.955-12.202-4.577c-6.725-4.894-13.495-9.725-20.28-14.535
				c-3.725-2.641-6.055-6.317-8.086-10.249c-2.318-4.486-3.845-9.303-5.759-13.958c-1.887-4.59-3.968-9.078-6.654-13.276
				c-0.517-0.809-1.015-1.593-1.594-2.369c-2.053-2.751-4.353-5.327-6.099-8.305c-0.219-0.373-0.508-0.742-0.85-0.999
				c-0.658-0.496-0.545-1.081-0.344-1.718c0.226-0.714,0.804-0.536,1.299-0.493c4.533,0.392,9.067,0.777,13.577,1.396
				c5.894,0.809,11.797,1.56,17.684,2.418c2.487,0.362,4.944,0.932,7.413,1.414c0.234,0.046,0.514,0.076,0.678,0.221
				c2.265,1.994,5.187,1.896,7.889,2.435c1.664,0.332,3.204,0.908,4.768,1.528c5.39,2.136,10.016,5.516,14.431,9.118
				c5.549,4.528,10.614,9.631,14.743,15.502c2.334,3.318,3.966,7.122,6.086,10.602c3.044,4.995,3.11,10.361,2.334,15.882
				c-0.05,0.353-0.188,0.713,0.065,1.039c1.545,2.001,2.372,4.33,3.099,6.709c0.083,0.273,0.111,0.647,0.58,0.797
				c0.539-2.743,1.208-5.448,1.575-8.194c0.451-3.374,1.083-6.712,1.896-10.003c0.824-3.338,0.88-6.734,1.121-10.11
				c0.811-11.367,1.362-22.749,1.732-34.139c0.027-0.831-0.124-1.418-0.818-1.948c-1.061-0.811-1.677-2.012-2.391-3.119
				c-3.711,2.925-7.659,2.772-11.841,1.193c-6.911-2.609-12.015-7.325-15.987-13.392c-2.145-3.276-4.285-6.564-6.244-9.953
				c-1.766-3.055-2.992-6.363-3.5-9.884c-0.142-0.984-0.843-1.818-0.722-2.965c0.842,0.067,1.528,0.476,2.246,0.747
				c3.377,1.276,6.901,2.029,10.404,2.812c6.641,1.484,12.408,4.51,17.323,9.202c3.691,3.523,7.135,7.248,9.119,12.038
				c0.979,2.363,0.979,4.909,0.714,7.422c-0.129,1.221,0.924,3.507,2.021,4.053c0.442,0.22,0.694,0.018,0.878-0.328
				c0.963-1.812,2.181-3.432,3.573-4.937c0.519-0.562,0.331-1.374,0.497-2.065c0.214-0.891,0.325-1.807,0.496-2.709
				c0.043-0.227,0.111-0.611,0.23-0.637c0.827-0.178,0.61-0.665,0.321-1.144c0.16-0.052,0.231-0.092,0.305-0.096
				c0.41-0.024,0.781,0.718,1.147,0.21c0.37-0.514-0.289-0.817-0.53-1.194c-0.166-0.259-0.361-0.499-0.528-0.727
				c0.287-0.399,0.44-0.079,0.63,0.002c0.309,0.133,0.633,0.203,0.849-0.143c0.158-0.253,0.188-0.537-0.065-0.764
				c-0.295-0.264-0.537-0.609-0.194-0.908c0.294-0.256,0.566,0.15,0.822,0.303c0.81,0.484,1.596,0.983,1.996-0.435
				c0.111-0.392,0.366-0.384,0.609-0.093c0.295,0.354,0.664,0.377,1.205,0.313c-0.378-0.59-1.036-0.94-0.723-1.796
				c0.081-0.22-0.885-0.875-1.428-1.246c-0.197-0.134-0.393,0.199-0.517,0.401c-0.201,0.33-0.343,0.726,0.07,0.943
				c0.896,0.471,0.079,0.933-0.072,1.225c-0.265,0.515-0.567-0.084-0.86-0.187c-0.074-0.026-0.139-0.078-0.207-0.121
				c-0.754-0.475-0.804-1.024-0.841-1.95c-0.034-0.872-0.042-1.71,0.131-2.562c0.165-0.81,0.522-1.446,1.435-1.439
				c0.442,0.003,0.487-0.355,0.721-0.532c0.167-0.127,0.231-0.338,0.056-0.522c-0.193-0.203-0.344-0.067-0.492,0.086
				c-0.215,0.222-0.451,0.58-0.778,0.285c-0.269-0.242-0.051-0.608,0.053-0.899c0.239-0.669,0.258-1.42,0.736-2L180.993,171.819z
				 M210.674,249.748c-0.528,0.039-0.807,0.231-0.822,0.74c-0.019,0.664,0.087,1.35-0.343,1.953
				c-0.113,0.158-0.109,0.403,0.143,0.488c0.257,0.086,0.349-0.096,0.394-0.308c0.071-0.335,0.018-0.757,0.565-0.737
				c0.504,0.019,0.841-0.119,0.796-0.743c-0.023-0.32,0.212-0.521,0.561-0.405c0.317,0.105,0.614,0.124,0.533-0.302
				c-0.05-0.263-0.19-0.799-0.538-0.626C211.442,250.067,211.047,249.849,210.674,249.748z M203.657,244.141
				c0.271-0.791,1.165-0.284,1.679-0.736c0.298-0.262,0.577-0.62,0.362-1.035c-0.185-0.357-0.559-0.579-0.976-0.57
				c-0.443,0.01-0.596,0.316-0.57,0.733c0.031,0.506-0.068,0.796-0.654,0.445c-0.333-0.2-0.64-0.111-0.683,0.324
				C202.767,243.784,203.087,244,203.657,244.141z M192.506,163.626c0.295-0.558,0.395-1.145,1.168-1.23
				c0.389-0.043,0.26-0.512-0.064-0.698c-0.858-0.494-1.349,0.232-1.763,0.705C191.135,163.214,192.449,163.052,192.506,163.626z
				 M179.92,247.58c0.601,0.004,0.573-0.501,0.675-0.847c0.166-0.564-0.203-0.822-0.688-0.881c-0.369-0.046-0.631,0.191-0.605,0.569
				C179.333,246.886,179.352,247.4,179.92,247.58z M244.848,252.617c0.556,0.2,0.901-0.178,0.915-0.604
				c0.028-0.855-0.934-0.127-1.294-0.682c-0.168-0.259-0.382,0.364-0.451,0.62C243.804,252.73,244.5,252.456,244.848,252.617z
				 M195.549,163.179c-0.041-0.392,0.001-0.872-0.629-0.731c-0.318,0.071-0.787,0.037-0.755,0.571
				c0.037,0.613,0.555,0.773,1.006,0.845C195.734,163.955,195.393,163.407,195.549,163.179z M192.063,188.664
				c-0.05,0.144-0.449,0.252-0.161,0.507c0.46,0.407,0.814,0.825,0.895,1.464c0.025,0.197,0.31,0.233,0.505,0.122
				c0.163-0.092,0.35-0.198,0.438-0.35C193.836,190.242,192.342,188.629,192.063,188.664z M182.503,182.856
				c-0.827,0.747-0.368,1.304,0.13,1.851c0.177,0.195,0.354,0.543,0.661,0.3c0.252-0.199,0.12-0.557-0.03-0.773
				C182.971,183.81,182.458,183.521,182.503,182.856z M126.67,218.507c-0.218-0.342,0.013-1.044-0.709-1.035
				c-0.535,0.007-0.605,0.511-0.617,0.878c-0.021,0.644,0.614,0.49,0.974,0.621C126.623,219.082,126.713,218.814,126.67,218.507z
				 M186.655,178.683c0.512-0.3,1.011-0.573,1.614-0.592c0.138-0.004,0.336,0.024,0.351-0.206c0.016-0.242-0.164-0.329-0.345-0.412
				C187.084,176.927,186.955,177.92,186.655,178.683z M202.581,163.494c0.114-0.68,0.821-1.135,0.402-1.895
				c-0.088-0.159-0.28-0.142-0.415-0.026c-0.578,0.495-0.481,1.118-0.311,1.749C202.264,163.347,202.321,163.359,202.581,163.494z
				 M194.09,184.767c0.352-0.262,0.958-0.311,1.037-0.93c0.027-0.213-0.161-0.376-0.389-0.317c-0.496,0.129-1.024,0.258-1.073,0.908
				C193.649,184.651,193.793,184.786,194.09,184.767z M227.586,216.776c0.861,0.418,1.285-0.14,1.734-0.614
				c0.119-0.126,0.169-0.329-0.009-0.4c-0.646-0.258-0.979,0.334-1.433,0.587C227.763,216.414,227.709,216.59,227.586,216.776z
				 M223.286,234.742c-0.468,0.046-0.674,0.247-0.64,0.63c0.025,0.281,0.227,0.705,0.452,0.473c0.383-0.394,1.218,0.019,1.222-0.573
				C224.324,234.803,223.488,235.151,223.286,234.742z M189.971,185.574c0.199-0.322-0.005-0.506-0.084-0.718
				c-0.16-0.431-0.517-0.57-0.923-0.617c-0.2-0.023-0.27,0.147-0.283,0.306c-0.041,0.493,0.399,0.509,0.69,0.673
				C189.563,185.326,189.612,185.651,189.971,185.574z M213.548,252.267c-0.111-0.29-0.051-0.768-0.566-0.722
				c-0.353,0.031-0.558,0.351-0.566,0.665c-0.012,0.513,0.466,0.44,0.784,0.502C213.518,252.774,213.617,252.579,213.548,252.267z"
				/>
			<path d="M182.429,167.847c-0.079-0.883,0.623-0.464,0.935-0.587c0.299-0.118,0.879,0.118,0.757,0.501
				c-0.179,0.562-0.618,1.306-1.146,1.326C182.424,169.108,182.606,168.245,182.429,167.847z"/>
			<path d="M181.023,171.853c0.03-0.331-0.019-0.946,0.391-0.78c0.491,0.198,1.235-0.012,1.479,0.665
				c0.132,0.366-0.043,0.581-0.476,0.583c-0.543,0.003-0.97-0.274-1.423-0.5C180.993,171.819,181.023,171.853,181.023,171.853z"/>
		</g>
	</g>
	<rect x="2.5" y="2.5" fill="none" stroke="#231F20" stroke-width="2.8346" stroke-miterlimit="10" width="340" height="340"/>
	<circle fill="none" stroke="#231F20" stroke-width="2.8346" stroke-miterlimit="10" cx="172.5" cy="172.5" r="170"/>
</g>
<g>
</g>
<g>
</g>
<g>
</g>
<g>
</g>
<g>
</g>
<g>
</g>
</svg>
