<?xml version="1.0" encoding="utf-8"?>
<!-- Generator: Adobe Illustrator 17.0.0, SVG Export Plug-In . SVG Version: 6.00 Build 0)  -->
<!DOCTYPE svg PUBLIC "-//W3C//DTD SVG 1.1//EN" "http://www.w3.org/Graphics/SVG/1.1/DTD/svg11.dtd">
<svg version="1.1" id="Layer_1" xmlns="http://www.w3.org/2000/svg" xmlns:xlink="http://www.w3.org/1999/xlink" x="0px" y="0px"
	 width="346px" height="444px" viewBox="0 0 346 444" enable-background="new 0 0 346 444" xml:space="preserve">
<rect x="3.452" y="3.394" fill="#FFFFFF" width="340" height="440.856"/>
<g>
	<circle fill="#BE1E2D" cx="128.619" cy="145.192" r="45.536"/>
	<g>
		<g>
			<path d="M181.944,172.714c0.324,1.14,1.534,1.873,1.465,3.203c-0.012,0.223,0.177,0.332,0.424,0.231
				c0.884-0.36,1.372,0.294,1.956,0.772c0.411-0.231,0.165-0.856,0.658-1.091c0.324,0.27-0.121,0.546-0.03,0.813
				c0.063,0.186,0.058,0.435,0.304,0.457c0.241,0.022,0.357-0.186,0.351-0.393c-0.017-0.671,0.253-0.775,0.8-0.459
				c0.068,0.039,0.3-0.055,0.298-0.066c-0.19-1.372,0.646-0.622,1.212-0.651c1.309-0.069,2.082-1.228,3.177-1.764
				c0.186-0.091-0.045-0.427-0.171-0.627c-0.166-0.264-0.674-0.106-0.691-0.618c1.245-0.105,1.736,0.81,2.353,2.012
				c0.124-0.978,0.386-1.541,1.152-1.995c-0.672-0.168-1.118-0.285-1.567-0.386c-0.112-0.025-0.316,0.046-0.343-0.002
				c-1.021-1.848-2.381,0.022-3.556-0.313c-0.595-0.169-1.376,0.036-1.353-0.9c0.011-0.446-0.245-0.478-0.491-0.674
				c-0.675-0.538-0.69-1.269-0.117-2.024c0.436,0.137,0.122,0.464,0.174,0.696c0.05,0.225,0.087,0.452,0.162,0.848
				c0.357-0.439,0.615-0.642,1.135-0.443c0.857,0.329,1.132-0.037,0.952-1.107c-0.421,0.011-0.084,0.545-0.517,0.624
				c-0.185-0.642-0.807-1.08-0.918-1.8c-0.083-0.541-0.711-0.662-0.889-0.582c-1.197,0.537-1.058-0.191-0.984-0.93
				c0.009-0.093-0.094-0.198-0.136-0.28c-0.292-0.046-0.349,0.177-0.478,0.315c-0.225,0.24-0.471,0.441-0.829,0.213
				c-0.347-0.222-0.448-0.484-0.331-0.91c0.26-0.945,0.698-1.759,1.365-2.487c5.135-5.604,11.033-10.225,17.996-13.294
				c6.353-2.8,13.054-4.403,19.982-5.145c4.814-0.516,9.633-0.658,14.459-0.822c1.065-0.036,1.319,0.481,0.791,1.163
				c-2.649,3.423-3.045,7.576-3.872,11.584c-1.145,5.55-4.153,10.13-7.323,14.675c-4.074,5.841-9.527,10.284-15.124,14.418
				c-5.422,4.005-11.51,7.082-18.272,8.346c-4.434,0.829-8.92,1.368-13.417,1.766c-0.636,0.056-1.279,0.196-1.908,0.151
				c-1.732-0.122-2.487,1-3.081,2.324c-0.499,1.111-0.617,2.317-0.679,3.515c-0.184,3.559-0.159,7.112,0.504,10.633
				c0.059,0.313,0.115,0.633,0.113,0.95c-0.04,7.44,0.413,14.863,0.739,22.291c0.172,3.92-0.391,7.819-0.442,11.735
				c-0.017,1.327,0.008,1.353,1.278,0.798c1.956-0.855,3.313-2.483,4.877-3.822c6.491-5.556,12.901-11.218,19.656-16.444
				c4.827-3.734,10.09-6.78,15.984-8.742c5.48-1.824,11.069-3.076,16.748-3.828c7.599-1.007,15.21-0.973,22.818,0.401
				c6.096,1.101,12.067,2.546,17.858,4.746c0.803,0.305,1.429,0.868,2.187,1.226c4.977,2.351,10.097,4.348,15.269,6.216
				c2.061,0.745,4.148,1.419,6.214,2.152c0.91,0.323,1.032,0.9,0.333,1.58c-0.511,0.497-1.02,1-1.689,1.32
				c-5.354,2.564-9.656,6.362-12.962,11.27c-1.308,1.942-3.208,3.205-4.932,4.676c-2.946,2.513-6.136,4.677-9.389,6.779
				c-2.743,1.773-5.314,3.823-8.214,5.351c-4.039,2.129-8.314,3.663-12.704,4.914c-6.468,1.843-13.058,2.982-19.743,3.638
				c-2,0.196-3.965,0.023-5.941-0.277c-3.488-0.529-7.011-0.711-10.527-0.968c-4.401-0.322-8.514-1.905-12.715-3.089
				c-3.135-0.883-5.941-2.523-8.813-3.972c-5.206-2.625-10.2-5.635-14.934-9.051c-0.801-0.578-1.115-0.584-1.363,0.458
				c-1.337,5.603-3.044,11.096-5.094,16.478c-2.583,6.784-4.147,13.843-5.709,20.904c-1.802,8.145-2.554,16.414-2.919,24.73
				c-0.337,7.669-0.326,15.346-0.521,23.018c-0.044,1.751-0.295,3.497-0.433,5.246c-0.054,0.686-0.404,1.007-1.079,1.003
				c-0.64-0.004-1.28,0.006-1.92-0.01c-1.942-0.047-2.213-0.493-2.005-2.44c0.347-3.25,1.136-6.426,1.448-9.683
				c0.427-4.458,0.673-8.927,0.955-13.394c0.597-9.454,0.957-18.933,2.214-28.326c0.789-5.895,1.899-11.754,3.163-17.575
				c0.22-1.015,0.302-2.062,0.561-3.066c0.501-1.947-2.189-7.195-3.986-8.089c-0.343-0.17-0.636-0.336-0.923,0.091
				c-2.514,3.735-6.432,4.835-10.521,5.772c-4.014,0.92-7.94,0.323-11.903-0.173c-2.22-0.278-4.472-0.351-6.669-0.742
				c-3.865-0.689-7.422-2.238-10.565-4.585c-6.473-4.832-13.086-9.466-19.681-14.127c-3.762-2.659-6.141-6.344-8.188-10.315
				c-2.678-5.197-4.35-10.815-6.68-16.16c-1.68-3.852-3.49-7.63-5.814-11.143c-0.239-0.361-0.561-0.695-0.314-1.193
				c0.045-0.091,0.031-0.316-0.016-0.335c-2.289-0.964-2.82-3.461-4.406-5.039c-1.622-1.613-2.445-3.836-4.081-5.455
				c-0.433-0.429-0.094-0.996,0.067-1.471c0.17-0.5,0.635-0.4,1.026-0.367c4.69,0.403,9.379,0.807,14.045,1.45
				c5.812,0.801,11.633,1.536,17.437,2.383c2.485,0.362,4.94,0.933,7.407,1.415c0.233,0.046,0.513,0.08,0.676,0.225
				c2.021,1.797,4.603,1.938,7.062,2.263c2.848,0.376,5.283,1.712,7.856,2.784c4.124,1.717,7.545,4.491,11.004,7.172
				c5.316,4.121,10.046,8.873,14.222,14.161c3.741,4.737,6.267,10.199,9.146,15.443c1.382,2.516,1.164,5.435,1.373,8.215
				c0.126,1.679-0.013,3.354-0.41,5.001c-0.083,0.343-0.209,0.718,0.043,1.042c1.579,2.029,2.399,4.402,3.138,6.817
				c0.077,0.253,0.242,0.479,0.519,1.01c0.628-3.32,1.315-6.331,1.743-9.378c0.501-3.566,1.286-7.071,2.052-10.578
				c0.62-2.836,0.623-5.717,0.826-8.574c0.806-11.365,1.371-22.745,1.737-34.135c0.028-0.858-0.087-1.495-0.838-2.055
				c-1.067-0.795-1.666-2.012-2.373-3.098c-3.708,2.926-7.653,2.773-11.824,1.201c-6.866-2.587-11.964-7.254-15.921-13.282
				c-2.17-3.306-4.328-6.628-6.31-10.047c-1.789-3.087-3.038-6.425-3.524-9.991c-0.133-0.974-0.929-1.789-0.66-2.948
				c1.019,0.369,1.982,0.723,2.948,1.067c4.071,1.448,8.355,2.098,12.486,3.32c4.408,1.304,8.391,3.372,11.993,6.267
				c3.94,3.166,7.236,6.895,10.058,11.041c1.326,1.948,2.238,4.131,2.251,6.589c0.008,1.544,0.404,3.074-0.093,4.634
				c-0.243,0.765,1.522,3.266,2.268,3.489c0.485,0.145,0.653-0.212,0.814-0.518c0.899-1.71,2.035-3.248,3.364-4.641
				c0.301-0.315,0.385-0.667,0.449-1.072c0.194-1.222,0.425-2.437,0.64-3.656c0.08-0.456,0.046-0.874,0.71-1.067
				c0.661-0.192-0.257-0.594-0.068-0.944c0.064-0.029,0.131-0.076,0.203-0.088c0.442-0.075,0.831,0.808,1.23,0.189
				c0.322-0.501-0.33-0.815-0.582-1.192c-0.171-0.257-0.469-0.437-0.492-0.779c0.344-0.371,0.478,0.096,0.708,0.142
				c0.279,0.055,0.57,0.128,0.751-0.171c0.152-0.25,0.227-0.547-0.021-0.771c-0.289-0.261-0.594-0.588-0.27-0.896
				c0.368-0.35,0.589,0.219,0.88,0.357c0.784,0.371,1.565,0.892,1.946-0.447c0.125-0.439,0.347-0.528,0.649-0.141
				c0.288,0.37,0.697,0.291,1.14,0.306c-0.873-0.729-0.455-2.18-1.681-2.732c-0.29-0.131-0.43-0.638-0.795-0.165
				c-0.261,0.339-0.643,0.863-0.115,1.131c0.937,0.476,0.124,0.91-0.009,1.217c-0.255,0.585-0.558-0.009-0.834-0.126
				c-0.145-0.062-0.27-0.17-0.408-0.251c-0.968-0.573-0.816-0.557-0.698-1.77c0.081-0.831-0.076-1.692,0.123-2.549
				c0.196-0.843,0.503-1.523,1.492-1.503c0.438,0.009,0.465-0.382,0.709-0.554c0.237-0.167,0.216-0.437-0.004-0.609
				c-0.208-0.163-0.352,0.015-0.478,0.183c-0.17,0.227-0.391,0.502-0.681,0.35c-0.388-0.204-0.153-0.576-0.055-0.85
				c0.251-0.706,0.267-1.498,0.767-2.113L181.944,172.714z M210.632,253.869c0.209,0.013,0.351-0.086,0.35-0.256
				c-0.004-0.647,0.289-0.903,0.939-0.865c0.307,0.018,0.495-0.2,0.435-0.563c-0.052-0.314,0.062-0.594,0.414-0.582
				c0.317,0.011,0.796,0.359,0.676-0.324c-0.066-0.377-0.268-0.91-0.889-0.456c-0.224,0.164-0.451-0.044-0.674-0.106
				c-0.68-0.19-1.094,0.012-1.088,0.776c0.005,0.633,0.041,1.26-0.344,1.827C210.309,253.53,210.327,253.784,210.632,253.869z
				 M205.037,243.986c-0.47,0.119-0.862-0.578-1.226,0.003c-0.155,0.246-0.086,0.534,0.135,0.757
				c0.413,0.417,0.725,0.212,1.114-0.091c0.218-0.169,0.605-0.108,0.908-0.184c0.489-0.122,0.725-0.512,0.746-0.959
				c0.026-0.545-0.488-0.759-0.874-0.81C204.844,242.57,205.182,243.427,205.037,243.986z M194.834,162.879
				c-0.048-0.059-0.129-0.191-0.241-0.286c-0.713-0.603-1.091,0.203-1.583,0.428c-0.227,0.104-0.627,0.437-0.492,0.705
				c0.158,0.314,0.534,0.615,0.875,0.712c0.35,0.1,0.31-0.358,0.401-0.595c0.109-0.284,0.289-0.466,0.611-0.469
				C194.672,163.372,194.876,163.298,194.834,162.879z M181.634,247.468c-0.067-0.454-0.345-0.72-0.782-0.751
				c-0.408-0.029-0.735,0.174-0.636,0.636c0.099,0.462-0.004,1.16,0.755,1.134C181.569,248.467,181.401,247.821,181.634,247.468z
				 M194.724,191.175c-0.477-0.532-0.957-1.09-1.467-1.619c-0.128-0.133-0.288,0.025-0.405,0.132
				c-0.194,0.176-0.156,0.339,0.043,0.473c0.441,0.296,0.761,0.632,0.772,1.229c0.006,0.312,0.293,0.454,0.617,0.28
				C194.478,191.565,194.759,191.531,194.724,191.175z M246.8,252.793c-0.256-0.608-0.988-0.141-1.406-0.584
				c-0.214-0.227-0.433,0.466-0.456,0.757c-0.066,0.821,0.699,0.443,1.056,0.575C246.429,253.7,246.631,253.22,246.8,252.793z
				 M127.647,219.455c-0.234-0.333,0.021-0.999-0.638-1.098c-0.549-0.083-0.642,0.371-0.709,0.756
				c-0.135,0.77,0.569,0.598,0.939,0.759C127.518,219.994,127.668,219.79,127.647,219.455z M196.512,164.867
				c-0.164-0.634,0.332-1.33-0.449-1.553c-0.273-0.078-0.91-0.025-0.94,0.485C195.076,164.591,195.758,164.668,196.512,164.867z
				 M183.525,183.438c-0.943,1.12-0.383,1.688,0.13,2.264c0.159,0.179,0.351,0.407,0.59,0.236c0.218-0.156,0.133-0.453,0.039-0.667
				C184.049,184.735,183.458,184.405,183.525,183.438z M189.666,178.939c-0.176-0.751-0.858-0.802-1.218-0.7
				c-0.589,0.167-0.832,0.773-0.893,1.676C188.182,179.099,188.887,179,189.666,178.939z M203.268,164.564
				c0.494-0.606,0.712-1.058,0.789-1.566c0.034-0.226,0.049-0.503-0.241-0.608c-0.307-0.111-0.435,0.162-0.544,0.346
				C202.974,163.241,203.076,163.767,203.268,164.564z M228.514,217.667c0.853,0.452,1.288-0.105,1.748-0.574
				c0.16-0.163,0.219-0.408-0.019-0.481c-0.631-0.192-0.99,0.356-1.442,0.632C228.685,217.315,228.631,217.488,228.514,217.667z
				 M195.021,185.701c0.344-0.258,0.92-0.338,1.069-0.902c0.07-0.264-0.122-0.475-0.414-0.397c-0.451,0.12-0.936,0.237-1.062,0.8
				C194.554,185.473,194.627,185.669,195.021,185.701z M224.093,236.817c0.174-0.633,1.191,0.067,1.211-0.647
				c0.015-0.504-0.764-0.23-1.142-0.505c-0.228-0.166-0.589,0.15-0.581,0.546C223.587,236.493,223.644,236.772,224.093,236.817z
				 M190.907,186.511c0.232-0.214,0.089-0.417,0.013-0.647c-0.161-0.486-0.532-0.675-0.98-0.76
				c-0.179-0.034-0.287,0.095-0.316,0.274c-0.093,0.574,0.442,0.566,0.729,0.79C190.526,186.302,190.588,186.612,190.907,186.511z
				 M214.555,253.282c-0.165-0.292-0.026-0.857-0.576-0.859c-0.398-0.001-0.63,0.366-0.633,0.723
				c-0.005,0.505,0.496,0.39,0.798,0.49C214.399,253.721,214.622,253.668,214.555,253.282z M131.156,253.873
				c-0.181,0.501,0.554,0.627,0.342,1.082c-0.133,0.286-0.091,0.483,0.271,0.402c0.264-0.059,0.638-0.204,0.417-0.539
				C131.94,254.444,131.822,253.828,131.156,253.873z"/>
			<path d="M184.184,168.168c0.362,0.026,0.994,0.044,0.868,0.473c-0.157,0.538-0.666,1.287-1.106,1.347
				c-0.518,0.071-0.429-0.79-0.542-1.264C183.228,167.981,183.885,168.341,184.184,168.168z"/>
			<path d="M181.974,172.747c0.035-0.331-0.042-0.953,0.403-0.779c0.493,0.192,1.245,0.06,1.474,0.746
				c0.113,0.337-0.098,0.49-0.457,0.5c-0.554,0.015-0.981-0.293-1.45-0.5C181.944,172.714,181.974,172.747,181.974,172.747z"/>
		</g>
	</g>
	<rect x="3.452" y="3.394" fill="none" stroke="#000000" stroke-width="2.8346" stroke-miterlimit="10" width="340" height="340"/>
	<circle fill="none" stroke="#000000" stroke-width="2.8346" stroke-miterlimit="10" cx="173.452" cy="173.394" r="170"/>
</g>
<g>
	<path d="M29.292,370.011c2.992,0,5.451,0.441,7.378,1.326c1.927,0.884,3.638,1.915,5.134,3.094c0.906,0.68,1.598,0.76,2.074,0.237
		c0.476-0.521,0.805-1.756,0.986-3.705h1.564c-0.091,1.723-0.16,3.797-0.204,6.222c-0.046,2.426-0.068,5.655-0.068,9.689h-1.564
		c-0.318-1.994-0.624-3.626-0.918-4.896c-0.295-1.269-0.68-2.356-1.156-3.264c-0.476-0.906-1.122-1.791-1.938-2.652
		c-1.315-1.632-2.924-2.811-4.828-3.536c-1.904-0.725-3.921-1.088-6.052-1.088c-2.312,0-4.352,0.578-6.12,1.734
		c-1.768,1.155-3.253,2.799-4.454,4.93c-1.202,2.131-2.12,4.647-2.754,7.548c-0.635,2.901-0.952,6.075-0.952,9.521
		c0,3.535,0.34,6.743,1.02,9.621c0.68,2.88,1.666,5.351,2.958,7.412c1.292,2.063,2.856,3.65,4.692,4.761
		c1.836,1.111,3.886,1.666,6.154,1.666c1.858,0,3.785-0.374,5.78-1.122c1.995-0.748,3.581-1.893,4.76-3.435
		c1.269-1.359,2.142-2.89,2.618-4.59c0.476-1.7,0.872-4.022,1.19-6.97h1.564c0,4.171,0.022,7.537,0.068,10.098
		c0.044,2.562,0.113,4.727,0.204,6.494h-1.564c-0.182-1.948-0.488-3.173-0.918-3.672c-0.432-0.498-1.146-0.431-2.142,0.204
		c-1.678,1.179-3.458,2.21-5.338,3.094c-1.882,0.884-4.296,1.326-7.242,1.326c-4.488,0-8.41-0.975-11.764-2.924
		c-3.355-1.949-5.961-4.761-7.82-8.433c-1.859-3.672-2.788-8.092-2.788-13.26c0-5.076,0.963-9.52,2.89-13.328
		c1.926-3.808,4.566-6.776,7.922-8.908C21.019,371.076,24.895,370.011,29.292,370.011z"/>
	<path d="M73.627,370.69l16.592,42.704c0.634,1.678,1.371,2.812,2.21,3.4c0.838,0.589,1.62,0.907,2.346,0.951v1.36
		c-1.088-0.09-2.369-0.146-3.842-0.17c-1.474-0.022-2.958-0.034-4.454-0.034c-1.904,0-3.672,0.012-5.304,0.034
		c-1.632,0.023-2.948,0.08-3.944,0.17v-1.36c2.312-0.09,3.774-0.486,4.386-1.189c0.612-0.702,0.464-2.21-0.442-4.522l-12.24-33.048
		l1.088-1.224l-11.288,29.512c-1.088,2.72-1.609,4.828-1.564,6.324c0.045,1.496,0.578,2.55,1.598,3.162
		c1.02,0.611,2.482,0.941,4.386,0.985v1.36c-1.36-0.09-2.732-0.146-4.114-0.17c-1.383-0.022-2.686-0.034-3.91-0.034
		c-1.088,0-2.051,0.012-2.89,0.034c-0.839,0.023-1.598,0.08-2.278,0.17v-1.36c0.952-0.226,1.904-0.792,2.856-1.699
		c0.952-0.907,1.858-2.448,2.72-4.624l15.776-40.732c0.362,0,0.748,0,1.156,0C72.879,370.69,73.264,370.69,73.627,370.69z
		 M80.767,399.522v1.36H60.503l0.68-1.36H80.767z"/>
	<path d="M150.808,370.963v1.359c-1.542,0.046-2.698,0.216-3.468,0.51c-0.771,0.296-1.281,0.84-1.53,1.633
		c-0.25,0.793-0.374,2.029-0.374,3.706v33.728c0,1.632,0.124,2.856,0.374,3.672c0.249,0.816,0.758,1.36,1.53,1.632
		c0.771,0.272,1.926,0.454,3.468,0.544v1.36c-1.134-0.09-2.54-0.146-4.216-0.17c-1.678-0.022-3.377-0.034-5.1-0.034
		c-1.904,0-3.695,0.012-5.372,0.034c-1.678,0.023-3.016,0.08-4.012,0.17v-1.36c1.541-0.09,2.708-0.271,3.502-0.544
		c0.792-0.271,1.326-0.815,1.598-1.632c0.272-0.815,0.408-2.04,0.408-3.672v-37.196l0.34,0.137l-16.728,44.54h-1.088l-17.544-44.064
		v34.816c0,1.903,0.136,3.389,0.408,4.453c0.272,1.066,0.861,1.826,1.768,2.278c0.906,0.454,2.289,0.748,4.148,0.884v1.36
		c-0.862-0.09-1.961-0.146-3.298-0.17c-1.338-0.022-2.596-0.034-3.774-0.034c-1.134,0-2.268,0.012-3.4,0.034
		c-1.133,0.023-2.063,0.08-2.788,0.17v-1.36c1.496-0.136,2.628-0.418,3.4-0.85c0.77-0.431,1.292-1.167,1.564-2.21
		c0.272-1.042,0.408-2.471,0.408-4.284v-32.231c0-1.677-0.136-2.913-0.408-3.706s-0.794-1.337-1.564-1.633
		c-0.771-0.294-1.904-0.464-3.4-0.51v-1.359c0.725,0.045,1.654,0.091,2.788,0.136c1.133,0.046,2.267,0.067,3.4,0.067
		c1.314,0,2.64-0.021,3.978-0.067c1.336-0.045,2.482-0.091,3.434-0.136l15.028,38.624l-1.292,0.884l14.756-39.305
		c0.588,0,1.201,0,1.836,0c0.634,0,1.269,0,1.904,0c1.723,0,3.422-0.021,5.1-0.067C148.268,371.054,149.674,371.008,150.808,370.963
		z"/>
	<path d="M190.86,370.963c-0.182,1.723-0.307,3.389-0.374,4.997c-0.068,1.61-0.103,2.846-0.103,3.706
		c0,0.862,0.022,1.678,0.068,2.448c0.045,0.771,0.09,1.406,0.136,1.904h-1.563c-0.318-2.9-0.806-5.19-1.463-6.868
		c-0.657-1.677-1.632-2.866-2.924-3.57c-1.292-0.702-3.094-1.054-5.405-1.054h-4.692c-1.452,0-2.551,0.125-3.298,0.374
		c-0.748,0.25-1.258,0.748-1.53,1.496s-0.408,1.916-0.408,3.502v34.272c0,1.541,0.136,2.697,0.408,3.468
		c0.272,0.771,0.782,1.281,1.53,1.529c0.748,0.25,1.846,0.374,3.298,0.374h4.42c2.584,0,4.635-0.407,6.154-1.224
		c1.518-0.815,2.674-2.152,3.468-4.012c0.793-1.858,1.394-4.396,1.802-7.616h1.564c-0.137,1.315-0.204,3.038-0.204,5.168
		c0,0.907,0.034,2.222,0.102,3.944c0.068,1.723,0.192,3.491,0.374,5.304c-2.312-0.09-4.919-0.146-7.819-0.17
		c-2.902-0.022-5.486-0.034-7.753-0.034c-1.405,0-3.276,0-5.61,0c-2.335,0-4.828,0.012-7.48,0.034
		c-2.652,0.023-5.134,0.08-7.446,0.17v-1.36c1.541-0.09,2.697-0.271,3.468-0.544c0.77-0.271,1.28-0.815,1.53-1.632
		c0.249-0.815,0.374-2.04,0.374-3.672v-33.728c0-1.677-0.125-2.913-0.374-3.706c-0.25-0.793-0.771-1.337-1.564-1.633
		c-0.793-0.294-1.938-0.464-3.434-0.51v-1.359c2.312,0.045,4.794,0.091,7.446,0.136c2.652,0.046,5.145,0.067,7.48,0.067
		c2.334,0,4.205,0,5.61,0c2.085,0,4.454-0.01,7.106-0.033C186.406,371.11,188.774,371.054,190.86,370.963z M179.572,394.219v1.359
		h-12.309v-1.359H179.572z M181.544,385.242c-0.182,2.584-0.262,4.557-0.238,5.916c0.022,1.36,0.034,2.607,0.034,3.74
		c0,1.134,0.022,2.38,0.068,3.74c0.044,1.359,0.158,3.332,0.34,5.916h-1.564c-0.227-1.496-0.521-2.935-0.884-4.318
		c-0.363-1.382-1.009-2.504-1.938-3.366c-0.93-0.86-2.369-1.292-4.318-1.292v-1.359c1.949,0,3.367-0.511,4.25-1.53
		c0.884-1.021,1.496-2.232,1.836-3.638s0.623-2.675,0.85-3.809H181.544z"/>
	<path d="M216.767,370.963v1.359c-1.541,0.046-2.709,0.216-3.502,0.51c-0.793,0.296-1.325,0.84-1.598,1.633
		c-0.271,0.793-0.408,2.029-0.408,3.706v34c0,1.541,0.125,2.697,0.374,3.468c0.249,0.771,0.748,1.281,1.496,1.529
		c0.748,0.25,1.824,0.374,3.23,0.374h4.42c2.628,0,4.714-0.486,6.256-1.462c1.54-0.974,2.72-2.458,3.536-4.454
		c0.815-1.994,1.404-4.532,1.768-7.615h1.564c-0.137,1.451-0.204,3.355-0.204,5.712c0,0.907,0.034,2.233,0.102,3.978
		c0.068,1.746,0.192,3.548,0.374,5.406c-2.312-0.09-4.919-0.146-7.819-0.17c-2.902-0.022-5.486-0.034-7.752-0.034
		c-1.406,0-3.276,0-5.61,0c-2.336,0-4.828,0.012-7.48,0.034c-2.651,0.023-5.134,0.08-7.445,0.17v-1.36
		c1.54-0.09,2.696-0.271,3.468-0.544c0.771-0.271,1.28-0.815,1.53-1.632c0.248-0.815,0.374-2.04,0.374-3.672v-33.728
		c0-1.677-0.126-2.913-0.374-3.706c-0.25-0.793-0.771-1.337-1.564-1.633c-0.794-0.294-1.938-0.464-3.434-0.51v-1.359
		c1.042,0.045,2.391,0.091,4.046,0.136c1.654,0.046,3.434,0.067,5.338,0.067c1.723,0,3.434-0.021,5.134-0.067
		C214.285,371.054,215.679,371.008,216.767,370.963z"/>
	<path d="M257.294,370.963v1.359c-1.541,0.046-2.709,0.216-3.502,0.51c-0.793,0.296-1.325,0.84-1.598,1.633
		c-0.271,0.793-0.408,2.029-0.408,3.706v34c0,1.541,0.125,2.697,0.374,3.468c0.249,0.771,0.748,1.281,1.496,1.529
		c0.748,0.25,1.824,0.374,3.23,0.374h4.42c2.628,0,4.714-0.486,6.256-1.462c1.54-0.974,2.72-2.458,3.536-4.454
		c0.815-1.994,1.404-4.532,1.768-7.615h1.564c-0.137,1.451-0.204,3.355-0.204,5.712c0,0.907,0.034,2.233,0.102,3.978
		c0.068,1.746,0.192,3.548,0.374,5.406c-2.312-0.09-4.919-0.146-7.819-0.17c-2.902-0.022-5.486-0.034-7.752-0.034
		c-1.406,0-3.276,0-5.61,0c-2.336,0-4.828,0.012-7.48,0.034c-2.651,0.023-5.134,0.08-7.445,0.17v-1.36
		c1.54-0.09,2.696-0.271,3.468-0.544c0.771-0.271,1.28-0.815,1.53-1.632c0.248-0.815,0.374-2.04,0.374-3.672v-33.728
		c0-1.677-0.126-2.913-0.374-3.706c-0.25-0.793-0.771-1.337-1.564-1.633c-0.794-0.294-1.938-0.464-3.434-0.51v-1.359
		c1.042,0.045,2.391,0.091,4.046,0.136c1.654,0.046,3.434,0.067,5.338,0.067c1.723,0,3.434-0.021,5.134-0.067
		C254.813,371.054,256.206,371.008,257.294,370.963z"/>
	<path d="M297.686,370.963v1.359c-1.496,0.046-2.63,0.216-3.399,0.51c-0.771,0.296-1.292,0.84-1.564,1.633
		c-0.271,0.793-0.408,2.029-0.408,3.706v33.728c0,1.632,0.137,2.856,0.408,3.672c0.272,0.816,0.793,1.36,1.564,1.632
		c0.77,0.272,1.903,0.454,3.399,0.544v1.36c-1.088-0.09-2.46-0.146-4.114-0.17c-1.655-0.022-3.343-0.034-5.065-0.034
		c-1.904,0-3.684,0.012-5.338,0.034c-1.655,0.023-3.004,0.08-4.046,0.17v-1.36c1.54-0.09,2.696-0.271,3.468-0.544
		c0.771-0.271,1.28-0.815,1.53-1.632c0.248-0.815,0.374-2.04,0.374-3.672v-33.728c0-1.677-0.126-2.913-0.374-3.706
		c-0.25-0.793-0.771-1.337-1.564-1.633c-0.794-0.294-1.938-0.464-3.434-0.51v-1.359c1.042,0.045,2.391,0.091,4.046,0.136
		c1.654,0.046,3.434,0.067,5.338,0.067c1.723,0,3.41-0.021,5.065-0.067C295.226,371.054,296.598,371.008,297.686,370.963z"/>
	<path d="M323.322,370.69l16.592,42.704c0.634,1.678,1.37,2.812,2.21,3.4c0.838,0.589,1.62,0.907,2.346,0.951v1.36
		c-1.088-0.09-2.369-0.146-3.842-0.17c-1.474-0.022-2.958-0.034-4.454-0.034c-1.904,0-3.672,0.012-5.304,0.034
		c-1.632,0.023-2.947,0.08-3.944,0.17v-1.36c2.313-0.09,3.774-0.486,4.386-1.189c0.612-0.702,0.465-2.21-0.441-4.522l-12.24-33.048
		l1.088-1.224l-11.288,29.512c-1.088,2.72-1.609,4.828-1.563,6.324c0.044,1.496,0.578,2.55,1.598,3.162
		c1.021,0.611,2.482,0.941,4.386,0.985v1.36c-1.359-0.09-2.731-0.146-4.113-0.17c-1.384-0.022-2.687-0.034-3.91-0.034
		c-1.088,0-2.052,0.012-2.891,0.034c-0.839,0.023-1.598,0.08-2.277,0.17v-1.36c0.952-0.226,1.903-0.792,2.855-1.699
		s1.858-2.448,2.721-4.624l15.775-40.732c0.362,0,0.748,0,1.156,0S322.959,370.69,323.322,370.69z M330.462,399.522v1.36h-20.264
		l0.68-1.36H330.462z"/>
</g>
<g>
</g>
<g>
</g>
<g>
</g>
<g>
</g>
<g>
</g>
<g>
</g>
</svg>
